<svg xmlns="http://www.w3.org/2000/svg" width="28.44" height="21.293" viewBox="0 0 28.44 21.293">
  <g id="icon-mail" transform="translate(-2 -307)">
    <path id="mail" d="M-649.548-1632.576H-670.32a4,4,0,0,1-1.061-.1,2.156,2.156,0,0,1-1.579-1.826,6.339,6.339,0,0,1-.04-.771c0-5.057,0-10.48,0-15.864v-.049a3.93,3.93,0,0,1,.092-1.022,2.189,2.189,0,0,1,1.965-1.635c.277-.019.548-.022.778-.022H-647.2a3.8,3.8,0,0,1,1.019.1,2.169,2.169,0,0,1,1.585,1.818,5.916,5.916,0,0,1,.038.762c0,5.9,0,11.109,0,15.934a3.955,3.955,0,0,1-.093,1.026,2.165,2.165,0,0,1-1.77,1.6,5.108,5.108,0,0,1-.773.05Zm2.351-1a4.059,4.059,0,0,0,.623-.04,1.149,1.149,0,0,0,.952-.863,3.121,3.121,0,0,0,.061-.773c0-4.827,0-10.039,0-15.934a4.979,4.979,0,0,0-.03-.635,1.169,1.169,0,0,0-.855-.981l-.046-.012c-5.248,4.986-8.653,8.22-12,11.4a.623.623,0,0,1-.434.189.626.626,0,0,1-.434-.189c-3.052-2.9-11.261-10.7-11.9-11.312l-.024-.023a1.171,1.171,0,0,0-.652.783,3.154,3.154,0,0,0-.06.771v.05c0,5.384,0,10.806,0,15.863a5.518,5.518,0,0,0,.031.65,1.162,1.162,0,0,0,.85.983,3.112,3.112,0,0,0,.8.068H-647.2Zm-22.733-19.209c.394.374,8.036,7.582,11.006,10.407,3.264-3.1,6.579-6.254,11.059-10.491C-649.726-1652.869-651.586-1652.869-669.93-1652.784Z" transform="translate(675 1960.869)" fill="#fff"/>
  </g>
</svg>
