<svg xmlns="http://www.w3.org/2000/svg" width="200" height="200" viewBox="0 0 200 200">
<style type="text/css">
	.st0{fill:#FFFFFF;}
</style>
<g>
	<path class="st0" d="M165,47.4H98.9c-2.2,0-3.9,1.7-3.9,3.9v61c0,2.2,1.7,3.9,3.9,3.9H165c2.2,0,3.9-1.7,3.9-3.9v-61
		C168.9,49.1,167.1,47.4,165,47.4z"/>
	<path class="st0" d="M62.5,126.5c-7.2,0-13.1,5.9-13.1,13.1c0,7.2,5.9,13.1,13.1,13.1s13.1-5.9,13.1-13.1
		C75.6,132.3,69.7,126.5,62.5,126.5z M62.5,145.4c-3.3,0-5.9-2.6-5.9-5.9c0-3.3,2.6-5.9,5.9-5.9c3.3,0,5.9,2.6,5.9,5.9
		C68.4,142.8,65.8,145.4,62.5,145.4z"/>
	<path class="st0" d="M139.8,126.5c-7.2,0-13.1,5.9-13.1,13.1c0,7.2,5.9,13.1,13.1,13.1c7.2,0,13.1-5.9,13.1-13.1
		S147,126.5,139.8,126.5z M139.8,145.4c-3.3,0-5.9-2.6-5.9-5.9c0-3.3,2.6-5.9,5.9-5.9s5.9,2.6,5.9,5.9
		C145.7,142.8,143,145.4,139.8,145.4z"/>
	<path class="st0" d="M85,65.7H55.5c-1,0-1.9,0.4-2.5,1.2L31.9,92.2c-0.5,0.6-0.8,1.3-0.8,2.1v22.2v11.6c0,1.8,1.5,3.2,3.2,3.2h9.9
		c3.1-7,10.1-11.8,18.2-11.8s15.1,4.9,18.2,11.8h7.5V69C88.2,67.2,86.8,65.7,85,65.7z M42.9,94.7c0-0.8,0.3-1.5,0.8-2.1L57.2,76
		c0.6-0.8,1.6-1.2,2.6-1.2H73c1.9,0,3.3,1.5,3.3,3.3v18.8c0,1.8-1.5,3.3-3.3,3.3H46.3c-1.8,0-3.3-1.5-3.3-3.3V94.7z"/>
	<path class="st0" d="M96.7,122.3c-1,0-1.8,0.8-1.8,1.8v5.5c0,1,0.8,1.8,1.8,1.8h24.9c1.7-3.8,4.6-7,8.2-9.1L96.7,122.3L96.7,122.3z
		"/>
	<path class="st0" d="M166.8,122.3h-17c3.6,2.1,6.5,5.3,8.2,9.1h8.8c1,0,1.8-0.8,1.8-1.8v-5.5C168.6,123.1,167.8,122.3,166.8,122.3z
		"/>
</g>
</svg>
