<svg xmlns="http://www.w3.org/2000/svg" width="75.844" height="20.023" viewBox="0 0 75.844 20.023">
  <path id="ttl_gift_sub" d="M6.521-9.464l-.193.709H4.759L3.577-4.061A27.965,27.965,0,0,1,2,.741,8.276,8.276,0,0,1-.43,4.05a3.41,3.41,0,0,1-1.977.7,1.626,1.626,0,0,1-1.1-.387.855.855,0,0,1-.333-.7.785.785,0,0,1,.274-.6.954.954,0,0,1,.671-.252A.7.7,0,0,1-2.4,3a.555.555,0,0,1,.2.419.592.592,0,0,1-.226.44q-.172.15-.172.226a.174.174,0,0,0,.075.15.489.489,0,0,0,.3.075,1.974,1.974,0,0,0,.972-.29,2.8,2.8,0,0,0,.908-.865,6.58,6.58,0,0,0,.752-1.66q.15-.451.806-2.976L3.083-8.755H1.214l.15-.709A4.287,4.287,0,0,0,2.61-9.587a1.51,1.51,0,0,0,.65-.473,7.113,7.113,0,0,0,.768-1.305,10.6,10.6,0,0,1,1.214-2A5.87,5.87,0,0,1,6.913-14.8a3.46,3.46,0,0,1,1.649-.478,1.975,1.975,0,0,1,1.311.414,1.175,1.175,0,0,1,.494.9.881.881,0,0,1-.247.634.839.839,0,0,1-.634.258.768.768,0,0,1-.542-.193.607.607,0,0,1-.209-.462.926.926,0,0,1,.14-.424.95.95,0,0,0,.14-.338.268.268,0,0,0-.1-.226.661.661,0,0,0-.408-.107,1.892,1.892,0,0,0-1.214.43A4.863,4.863,0,0,0,6-12.611q-.29.634-1.063,3.147Zm10.645,3.1a6.644,6.644,0,0,1-.854,3.19,6.474,6.474,0,0,1-2.379,2.5,5.719,5.719,0,0,1-2.965.924,3.229,3.229,0,0,1-2.4-.94,3.313,3.313,0,0,1-.929-2.433,6.347,6.347,0,0,1,.908-3.169A6.874,6.874,0,0,1,10.972-8.8a5.662,5.662,0,0,1,2.938-.924,3.136,3.136,0,0,1,2.336.935A3.316,3.316,0,0,1,17.165-6.359ZM15.382-7.1a2.183,2.183,0,0,0-.489-1.531,1.636,1.636,0,0,0-1.262-.532q-1.579,0-2.906,2.261A8.828,8.828,0,0,0,9.4-2.406,2.223,2.223,0,0,0,9.914-.833a1.7,1.7,0,0,0,1.3.553q1.515,0,2.841-2.25A8.909,8.909,0,0,0,15.382-7.1Zm4.64-2.02,3.706-.6L22.181-4.5A17.433,17.433,0,0,1,25.6-8.991a2.507,2.507,0,0,1,1.418-.73.744.744,0,0,1,.559.209.835.835,0,0,1,.2.607,2.706,2.706,0,0,1-.365,1.354.806.806,0,0,1-.741.483.609.609,0,0,1-.424-.161.777.777,0,0,1-.22-.494.413.413,0,0,0-.1-.269.279.279,0,0,0-.2-.086.72.72,0,0,0-.344.086,3.772,3.772,0,0,0-.849.838A23.384,23.384,0,0,0,22.6-4.426a8.1,8.1,0,0,0-.773,1.6q-.451,1.225-.516,1.472L20.967,0H19.323l1.987-6.671a6.8,6.8,0,0,0,.344-1.654.4.4,0,0,0-.161-.322.885.885,0,0,0-.569-.172,6.275,6.275,0,0,0-.827.1ZM50.528-14.9l-1.085,4.587h-.408a11.094,11.094,0,0,0,.1-1.192,2.421,2.421,0,0,0-.929-1.864,3.765,3.765,0,0,0-2.562-.811,6.357,6.357,0,0,0-5.457,3.137A9.657,9.657,0,0,0,38.5-5.489a5.97,5.97,0,0,0,1.042,3.523A3.658,3.658,0,0,0,42.75-.483a5.115,5.115,0,0,0,1.015-.1,12.629,12.629,0,0,0,1.445-.43l1.063-3.749A4.682,4.682,0,0,0,46.5-5.994a.687.687,0,0,0-.279-.591A2.636,2.636,0,0,0,44.759-6.9h-.3l.118-.419h6.059l-.107.419a3.018,3.018,0,0,0-1.2.193,1.573,1.573,0,0,0-.645.623,9.442,9.442,0,0,0-.591,1.687L47.015-.709a14.917,14.917,0,0,1-2.374.843,8.386,8.386,0,0,1-1.9.209,7.127,7.127,0,0,1-3.728-.865A5.339,5.339,0,0,1,36.9-2.809a6.505,6.505,0,0,1-.682-2.831,8.393,8.393,0,0,1,.795-3.593A9.9,9.9,0,0,1,39-12.112a9.635,9.635,0,0,1,2.583-1.853,9.126,9.126,0,0,1,4.039-.935,7.353,7.353,0,0,1,2.814.516,2.275,2.275,0,0,0,.741.2.813.813,0,0,0,.457-.124,2.126,2.126,0,0,0,.489-.6Zm5.854.913a1.037,1.037,0,0,1,.763.312,1.037,1.037,0,0,1,.312.763,1.034,1.034,0,0,1-.317.757,1.034,1.034,0,0,1-.757.317,1.034,1.034,0,0,1-.757-.317,1.034,1.034,0,0,1-.317-.757,1.037,1.037,0,0,1,.312-.763A1.037,1.037,0,0,1,56.381-13.986Zm.14,4.265-2.127,7.53a5.641,5.641,0,0,0-.215.913.389.389,0,0,0,.1.279.322.322,0,0,0,.242.107.685.685,0,0,0,.387-.172,6.439,6.439,0,0,0,1.235-1.375l.376.247A7.6,7.6,0,0,1,54.8-.312a2.306,2.306,0,0,1-1.4.569,1.007,1.007,0,0,1-.72-.263.87.87,0,0,1-.279-.661,5.507,5.507,0,0,1,.269-1.321l1.4-4.812a7.736,7.736,0,0,0,.344-1.482.5.5,0,0,0-.167-.387.656.656,0,0,0-.457-.15,7.969,7.969,0,0,0-.978.118V-9.12Zm8.453.258-.193.709H63.213L62.031-4.061a27.965,27.965,0,0,1-1.579,4.8A8.276,8.276,0,0,1,58.024,4.05a3.41,3.41,0,0,1-1.977.7,1.626,1.626,0,0,1-1.1-.387.855.855,0,0,1-.333-.7.785.785,0,0,1,.274-.6.954.954,0,0,1,.671-.252A.7.7,0,0,1,56.053,3a.555.555,0,0,1,.2.419.592.592,0,0,1-.226.44q-.172.15-.172.226a.174.174,0,0,0,.075.15.489.489,0,0,0,.3.075,1.974,1.974,0,0,0,.972-.29,2.8,2.8,0,0,0,.908-.865,6.58,6.58,0,0,0,.752-1.66q.15-.451.806-2.976l1.869-7.272H59.668l.15-.709a4.287,4.287,0,0,0,1.246-.124,1.51,1.51,0,0,0,.65-.473,7.113,7.113,0,0,0,.768-1.305,10.6,10.6,0,0,1,1.214-2,5.87,5.87,0,0,1,1.67-1.434,3.46,3.46,0,0,1,1.649-.478,1.975,1.975,0,0,1,1.311.414,1.175,1.175,0,0,1,.494.9.881.881,0,0,1-.247.634.839.839,0,0,1-.634.258.768.768,0,0,1-.542-.193.607.607,0,0,1-.209-.462.926.926,0,0,1,.14-.424.95.95,0,0,0,.14-.338.268.268,0,0,0-.1-.226.661.661,0,0,0-.408-.107,1.892,1.892,0,0,0-1.214.43,4.863,4.863,0,0,0-1.289,1.783q-.29.634-1.063,3.147Zm6.187-2.922-.838,2.922H72.01l-.183.677H70.151L68.3-2.449A6.343,6.343,0,0,0,68-1.128a.407.407,0,0,0,.086.279.265.265,0,0,0,.2.1A1.26,1.26,0,0,0,69-1.128a12.962,12.962,0,0,0,1.149-1.321l.354.269A7.622,7.622,0,0,1,68.637-.15a2.145,2.145,0,0,1-1.214.408,1.057,1.057,0,0,1-.773-.3,1.016,1.016,0,0,1-.3-.757,7.157,7.157,0,0,1,.344-1.772l1.794-6.22H66.864l.107-.419a5.258,5.258,0,0,0,1.966-.961,8.947,8.947,0,0,0,1.751-2.218Z" transform="translate(3.835 15.275)" fill="#222"/>
</svg>
