<svg xmlns="http://www.w3.org/2000/svg" xmlns:xlink="http://www.w3.org/1999/xlink" width="225" height="23" viewBox="0 0 225 23">
  <defs>
    <clipPath id="clip-path">
      <rect id="長方形_268" data-name="長方形 268" width="225" height="23" transform="translate(-2360 2071)" fill="#fff"/>
    </clipPath>
  </defs>
  <g id="ttl_recommend" transform="translate(2360 -2071)" clip-path="url(#clip-path)">
    <path id="パス_3283" data-name="パス 3283" d="M-104.271-9.656v5.938a6.555,6.555,0,0,0,.211,2.164,1.543,1.543,0,0,0,.742.711,5,5,0,0,0,1.984.266V0h-10.844V-.578a4.864,4.864,0,0,0,1.992-.273,1.6,1.6,0,0,0,.734-.711,6.474,6.474,0,0,0,.211-2.156v-13.75a6.555,6.555,0,0,0-.211-2.164,1.543,1.543,0,0,0-.742-.711,5,5,0,0,0-1.984-.266v-.578h9.844a21.484,21.484,0,0,1,5.625.531A5.666,5.666,0,0,1-93.8-18.7a5.261,5.261,0,0,1,1.125,3.352,5.006,5.006,0,0,1-1.687,3.875,6.976,6.976,0,0,1-3.016,1.453l5.094,7.172a10.842,10.842,0,0,0,1.422,1.734,2.647,2.647,0,0,0,1.484.531V0h-6.672l-6.828-9.656Zm0-10.391v9.281h.891a9.957,9.957,0,0,0,3.25-.4,3.238,3.238,0,0,0,1.7-1.437,5.262,5.262,0,0,0,.617-2.711,4.941,4.941,0,0,0-1.133-3.578,4.937,4.937,0,0,0-3.648-1.156Zm23.968.078v8.625h.422a3.346,3.346,0,0,0,2.922-1.266A7.786,7.786,0,0,0-75.8-16.344h.594V-5.25H-75.8a8.307,8.307,0,0,0-.789-2.969,3.4,3.4,0,0,0-1.4-1.555,5.316,5.316,0,0,0-2.312-.4V-4.2a8.61,8.61,0,0,0,.148,2.141,1.285,1.285,0,0,0,.555.641,2.6,2.6,0,0,0,1.313.25h1.266a7.605,7.605,0,0,0,4.758-1.375,7.659,7.659,0,0,0,2.57-4.187h.578L-70.068,0H-88.381V-.578h.7a2.93,2.93,0,0,0,1.484-.328,1.423,1.423,0,0,0,.625-.75A6.437,6.437,0,0,0-85.4-3.625V-17.562a11.107,11.107,0,0,0-.078-1.766,1.5,1.5,0,0,0-.578-.844,2.687,2.687,0,0,0-1.625-.437h-.7v-.578h17.734v6.266h-.594a7.639,7.639,0,0,0-1.273-3.3,4.73,4.73,0,0,0-2.32-1.469,12.566,12.566,0,0,0-3.281-.281Zm34.624-1.7v7.344h-.609a7.823,7.823,0,0,0-2.562-4.406,6.538,6.538,0,0,0-4.25-1.531,6.282,6.282,0,0,0-3.641,1.141,6.651,6.651,0,0,0-2.422,2.984,13.51,13.51,0,0,0-.984,5.25,17.562,17.562,0,0,0,.719,5.18,6.89,6.89,0,0,0,2.25,3.531,6.263,6.263,0,0,0,3.969,1.2,7.751,7.751,0,0,0,3.664-.875,12.669,12.669,0,0,0,3.508-3.016v1.828a11.575,11.575,0,0,1-3.711,2.7,11.265,11.265,0,0,1-4.508.836A12.942,12.942,0,0,1-60.28-.875a9.609,9.609,0,0,1-4.062-3.906,10.906,10.906,0,0,1-1.43-5.422,11.236,11.236,0,0,1,1.586-5.75A11.175,11.175,0,0,1-59.9-20.172a11.6,11.6,0,0,1,5.727-1.5,13,13,0,0,1,4.719.969,7.257,7.257,0,0,0,1.828.563,1.186,1.186,0,0,0,.867-.367,1.994,1.994,0,0,0,.477-1.164Zm14.749.188A10.58,10.58,0,0,1-22.7-18.531a10.621,10.621,0,0,1,3.164,7.859A11.3,11.3,0,0,1-21.9-3.578,10.489,10.489,0,0,1-30.726.484q-5.719,0-8.844-3.875a11.221,11.221,0,0,1-2.469-7.266,10.567,10.567,0,0,1,3.211-7.867A10.222,10.222,0,0,1-30.929-21.484Zm.188,1a4.775,4.775,0,0,0-4.422,2.969,15.868,15.868,0,0,0-1.234,7q0,5.422,1.906,8.016A4.345,4.345,0,0,0-30.773-.687a4.46,4.46,0,0,0,2.688-.781,6.416,6.416,0,0,0,2.141-3.2,17.753,17.753,0,0,0,.766-5.727,19.029,19.029,0,0,0-.781-6.289,6.122,6.122,0,0,0-1.992-2.945A4.7,4.7,0,0,0-30.742-20.484ZM-2.508-7.219l5.75-13.969h8.625v.578H11.18a2.966,2.966,0,0,0-1.5.328,1.526,1.526,0,0,0-.625.734,6.356,6.356,0,0,0-.172,1.953V-3.625a6.966,6.966,0,0,0,.172,2.031,1.558,1.558,0,0,0,.7.711,2.853,2.853,0,0,0,1.422.3h.688V0H.8V-.578h.688a2.966,2.966,0,0,0,1.5-.328,1.522,1.522,0,0,0,.625-.75,6.437,6.437,0,0,0,.172-1.969v-15.7L-4.336,0h-.375l-8.25-19.187V-4.266a13.178,13.178,0,0,0,.078,1.922A2.227,2.227,0,0,0-12-1.07a3.672,3.672,0,0,0,2.133.492V0h-7.25V-.578h.219A3.318,3.318,0,0,0-15.586-.8a2.112,2.112,0,0,0,.922-.648,2.983,2.983,0,0,0,.484-1.141q.031-.172.031-1.594V-17.594A6.79,6.79,0,0,0-14.32-19.6a1.57,1.57,0,0,0-.7-.7,2.853,2.853,0,0,0-1.422-.3h-.672v-.578h8.656Zm30.843,0,5.75-13.969H42.71v.578h-.687a2.966,2.966,0,0,0-1.5.328,1.526,1.526,0,0,0-.625.734,6.356,6.356,0,0,0-.172,1.953V-3.625A6.966,6.966,0,0,0,39.9-1.594a1.558,1.558,0,0,0,.7.711,2.853,2.853,0,0,0,1.422.3h.688V0H31.648V-.578h.687a2.966,2.966,0,0,0,1.5-.328,1.522,1.522,0,0,0,.625-.75,6.437,6.437,0,0,0,.172-1.969v-15.7L26.507,0h-.375l-8.25-19.187V-4.266a13.178,13.178,0,0,0,.078,1.922,2.227,2.227,0,0,0,.883,1.273,3.672,3.672,0,0,0,2.133.492V0h-7.25V-.578h.219A3.318,3.318,0,0,0,15.257-.8a2.112,2.112,0,0,0,.922-.648,2.983,2.983,0,0,0,.484-1.141q.031-.172.031-1.594V-17.594a6.79,6.79,0,0,0-.172-2.008,1.57,1.57,0,0,0-.7-.7,2.853,2.853,0,0,0-1.422-.3h-.672v-.578h8.656Zm24.312-12.75v8.625h.422a3.346,3.346,0,0,0,2.922-1.266,7.786,7.786,0,0,0,1.156-3.734h.594V-5.25h-.594a8.306,8.306,0,0,0-.789-2.969,3.4,3.4,0,0,0-1.4-1.555,5.316,5.316,0,0,0-2.312-.4V-4.2A8.61,8.61,0,0,0,52.8-2.062a1.285,1.285,0,0,0,.555.641,2.6,2.6,0,0,0,1.313.25h1.266a7.6,7.6,0,0,0,4.758-1.375,7.659,7.659,0,0,0,2.57-4.187h.578L62.882,0H44.569V-.578h.7a2.93,2.93,0,0,0,1.484-.328,1.423,1.423,0,0,0,.625-.75,6.437,6.437,0,0,0,.172-1.969V-17.562a11.108,11.108,0,0,0-.078-1.766,1.5,1.5,0,0,0-.578-.844,2.687,2.687,0,0,0-1.625-.437h-.7v-.578H62.3v6.266H61.71a7.639,7.639,0,0,0-1.273-3.3,4.73,4.73,0,0,0-2.32-1.469,12.566,12.566,0,0,0-3.281-.281Zm21.234-1.219L84.334-8.047v-9.109a4.308,4.308,0,0,0-.547-2.578,3.023,3.023,0,0,0-2.516-.875v-.578h7v.578a5.334,5.334,0,0,0-1.8.445,1.792,1.792,0,0,0-.719.891,6.075,6.075,0,0,0-.258,2.117V.484h-.531L70.631-17.156V-3.687a2.973,2.973,0,0,0,.836,2.469,3.062,3.062,0,0,0,1.914.641h.5V0H66.365V-.578A3.4,3.4,0,0,0,68.8-1.3a3.362,3.362,0,0,0,.688-2.391V-18.641l-.453-.562a4.12,4.12,0,0,0-1.187-1.109,3.574,3.574,0,0,0-1.484-.3v-.578ZM90.083,0V-.578h.7A2.824,2.824,0,0,0,92.2-.867a1.771,1.771,0,0,0,.727-.789,7.466,7.466,0,0,0,.141-1.969V-17.562a6.966,6.966,0,0,0-.172-2.031,1.563,1.563,0,0,0-.7-.711,2.807,2.807,0,0,0-1.414-.3h-.7v-.578h9.484a15.182,15.182,0,0,1,6.109,1.031,9.033,9.033,0,0,1,4.289,3.828,11.5,11.5,0,0,1,1.461,5.8,11.453,11.453,0,0,1-.719,4.117A9.457,9.457,0,0,1,108.849-3.3a9.1,9.1,0,0,1-2.633,1.969,14.069,14.069,0,0,1-3.648,1.148,17.154,17.154,0,0,1-3,.188Zm8.078-19.984V-3.453a5.822,5.822,0,0,0,.125,1.609.892.892,0,0,0,.422.453,2.554,2.554,0,0,0,1.219.234,4.729,4.729,0,0,0,3.984-1.781q1.875-2.406,1.875-7.469a14.063,14.063,0,0,0-1.281-6.516,5.461,5.461,0,0,0-2.609-2.594A10.127,10.127,0,0,0,98.162-19.984Z" transform="translate(-2247 2093)" fill="#222"/>
  </g>
</svg>
