<svg xmlns="http://www.w3.org/2000/svg" xmlns:xlink="http://www.w3.org/1999/xlink" width="100" height="23" viewBox="0 0 100 23">
<g>
	<path d="M10.9,2.8L11,8.1h-0.5c-0.2-1.3-0.8-2.4-1.7-3.2S7,3.7,6,3.7c-0.8,0-1.5,0.2-1.9,0.7S3.4,5.3,3.4,5.8
		c0,0.4,0.1,0.7,0.2,0.9c0.2,0.4,0.6,0.7,1.1,1.1c0.4,0.3,1.2,0.7,2.5,1.4c1.9,0.9,3.1,1.8,3.8,2.6c0.6,0.8,1,1.7,1,2.8
		c0,1.3-0.5,2.5-1.6,3.4c-1.1,0.9-2.3,1.4-3.9,1.4c-0.5,0-1-0.1-1.4-0.2c-0.4-0.1-1-0.3-1.7-0.6c-0.4-0.2-0.7-0.2-0.9-0.2
		c-0.2,0-0.4,0.1-0.6,0.2c-0.2,0.1-0.4,0.4-0.6,0.7H0.8v-6h0.4c0.3,1.7,1,3,2,3.9s2,1.3,3.2,1.3c0.9,0,1.6-0.2,2.1-0.7
		s0.8-1,0.8-1.7c0-0.4-0.1-0.7-0.3-1.1s-0.5-0.7-0.9-1S7,13.4,5.9,12.9c-1.4-0.7-2.5-1.3-3.1-1.8s-1.1-1-1.4-1.7s-0.6-1.3-0.6-2
		c0-1.3,0.5-2.3,1.4-3.2s2.1-1.3,3.5-1.3c0.5,0,1,0.1,1.5,0.2C7.6,3.2,8,3.4,8.5,3.6S9.4,4,9.6,4c0.2,0,0.4-0.1,0.5-0.2
		s0.2-0.4,0.3-0.9h0.5V2.8z"/>
	<path d="M19.5,4.1v6.5h0.3c1,0,1.7-0.3,2.2-0.9c0.5-0.6,0.7-1.6,0.9-2.8h0.4v8.3h-0.4c-0.1-0.9-0.3-1.6-0.6-2.2
		c-0.3-0.6-0.7-1-1-1.2s-1-0.3-1.7-0.3V16c0,0.9,0,1.4,0.1,1.6s0.2,0.4,0.4,0.5s0.5,0.2,1,0.2H22c1.5,0,2.7-0.3,3.6-1
		c0.9-0.7,1.5-1.7,1.9-3.1h0.4l-0.7,5.1H13.4v-0.4h0.5c0.5,0,0.8-0.1,1.1-0.2c0.2-0.1,0.4-0.3,0.5-0.6c0.1-0.2,0.1-0.7,0.1-1.5V5.9
		c0-0.7,0-1.2-0.1-1.3c-0.1-0.3-0.2-0.5-0.4-0.6c-0.3-0.2-0.7-0.3-1.2-0.3h-0.5V3.3h13.3V8h-0.4c-0.2-1.1-0.5-2-1-2.5
		s-1-0.9-1.7-1.1c-0.4-0.1-1.3-0.2-2.5-0.2L19.5,4.1L19.5,4.1z"/>
	<path d="M38.9,14.6h-5.6l-0.7,1.5c-0.2,0.5-0.3,0.9-0.3,1.3c0,0.4,0.2,0.8,0.5,1c0.2,0.1,0.7,0.2,1.6,0.3v0.4h-5.3v-0.4
		c0.6-0.1,1-0.3,1.4-0.7s0.8-1.2,1.4-2.4l5.7-12.7h0.2l5.7,13c0.5,1.2,1,2,1.3,2.3c0.3,0.2,0.6,0.4,1.1,0.4V19h-7.7v-0.4h0.3
		c0.6,0,1.1-0.1,1.3-0.3c0.2-0.1,0.3-0.3,0.3-0.5c0-0.1,0-0.3-0.1-0.4c0-0.1-0.1-0.4-0.4-0.9L38.9,14.6z M38.5,13.7l-2.4-5.5
		l-2.4,5.5H38.5z"/>
	<path d="M52.7,11.8v4.5c0,0.9,0.1,1.4,0.2,1.6s0.3,0.4,0.6,0.5s0.8,0.2,1.5,0.2V19h-8.1v-0.4c0.7,0,1.2-0.1,1.5-0.2
		c0.3-0.1,0.4-0.3,0.6-0.5c0.2-0.2,0.2-0.8,0.2-1.6V6c0-0.9-0.1-1.4-0.2-1.6c-0.1-0.2-0.3-0.4-0.6-0.5s-0.8-0.2-1.5-0.2V3.3h7.4
		c1.9,0,3.3,0.1,4.2,0.4s1.6,0.8,2.2,1.5s0.8,1.6,0.8,2.5c0,1.2-0.4,2.1-1.3,2.9c-0.5,0.5-1.3,0.8-2.3,1.1l3.8,5.4
		c0.5,0.7,0.9,1.1,1.1,1.3c0.3,0.2,0.7,0.4,1.1,0.4v0.4h-5L53.8,12h-1.1V11.8z M52.7,4.1v7h0.7c1.1,0,1.9-0.1,2.4-0.3
		c0.5-0.2,1-0.6,1.3-1.1s0.5-1.2,0.5-2c0-1.2-0.3-2.1-0.8-2.7s-1.5-0.9-2.7-0.9C54.1,4.1,52.7,4.1,52.7,4.1z"/>
	<path d="M79.6,2.8v5.5h-0.5c-0.3-1.4-1-2.5-1.9-3.3s-2-1.1-3.2-1.1c-1,0-1.9,0.3-2.7,0.9S69.9,6.1,69.5,7c-0.5,1.2-0.7,2.5-0.7,3.9
		s0.2,2.7,0.5,3.9s0.9,2.1,1.7,2.6s1.8,0.9,3,0.9c1,0,1.9-0.2,2.7-0.7s1.7-1.2,2.6-2.3v1.4c-0.9,0.9-1.8,1.6-2.8,2s-2.1,0.6-3.4,0.6
		c-1.7,0-3.2-0.3-4.5-1c-1.3-0.7-2.3-1.7-3-2.9s-1-2.5-1-4s0.4-3,1.2-4.3s1.9-2.4,3.2-3.2s2.8-1.1,4.3-1.1c1.1,0,2.3,0.2,3.5,0.7
		c0.7,0.3,1.2,0.4,1.4,0.4c0.2,0,0.5-0.1,0.7-0.3s0.3-0.5,0.4-0.9h0.3V2.8z"/>
	<path d="M87.5,11.4v5c0,0.8,0,1.3,0.1,1.5c0.1,0.2,0.3,0.4,0.5,0.5s0.6,0.2,1.1,0.2h0.5V19h-8.3v-0.4H82c0.5,0,0.8-0.1,1.1-0.2
		c0.2-0.1,0.4-0.3,0.5-0.6c0.1-0.2,0.1-0.7,0.1-1.5V5.9c0-0.8,0-1.3-0.1-1.5C83.5,4.2,83.3,4,83,3.9c-0.3-0.1-0.6-0.3-1-0.3h-0.5
		V3.2h8.3v0.4h-0.5c-0.5,0-0.8,0.1-1.1,0.2c-0.2,0.1-0.4,0.3-0.5,0.6c-0.1,0.2-0.1,0.7-0.1,1.5v4.5h5.6V5.9c0-0.8,0-1.3-0.1-1.5
		C93,4.2,92.8,4,92.6,3.9c-0.2-0.1-0.6-0.2-1.1-0.2H91V3.3h8.3v0.4h-0.5c-0.5,0-0.8,0.1-1.1,0.2c-0.2,0.1-0.4,0.3-0.5,0.6
		c-0.1,0.2-0.1,0.7-0.1,1.5v10.4c0,0.8,0,1.3,0.1,1.5c0.1,0.2,0.3,0.4,0.5,0.5s0.6,0.2,1.1,0.2h0.5V19H91v-0.4h0.5
		c0.5,0,0.8-0.1,1.1-0.2c0.2-0.1,0.4-0.3,0.5-0.6c0.1-0.2,0.1-0.7,0.1-1.5v-4.9H87.5z"/>
</g>
</svg>
