<svg xmlns="http://www.w3.org/2000/svg" xmlns:xlink="http://www.w3.org/1999/xlink" width="136" height="23" viewBox="0 0 136 23">
  <defs>
    <clipPath id="clip-path">
      <rect id="長方形_269" data-name="長方形 269" width="136" height="23" transform="translate(-2192 3319)" fill="#fff"/>
    </clipPath>
  </defs>
  <g id="ttl_category" transform="translate(2192 -3319)" clip-path="url(#clip-path)">
    <path id="パス_3285" data-name="パス 3285" d="M16.02-16.254v5.508h-.457a5.867,5.867,0,0,0-1.922-3.3A4.9,4.9,0,0,0,10.453-15.2a4.711,4.711,0,0,0-2.73.855,4.989,4.989,0,0,0-1.816,2.238,10.132,10.132,0,0,0-.738,3.938,13.172,13.172,0,0,0,.539,3.885A5.167,5.167,0,0,0,7.395-1.635a4.7,4.7,0,0,0,2.977.9,5.813,5.813,0,0,0,2.748-.656A9.5,9.5,0,0,0,15.75-3.656v1.371A8.681,8.681,0,0,1,12.967-.264,8.449,8.449,0,0,1,9.586.363,9.706,9.706,0,0,1,5.068-.656a7.207,7.207,0,0,1-3.047-2.93A8.179,8.179,0,0,1,.949-7.652a8.427,8.427,0,0,1,1.189-4.312A8.381,8.381,0,0,1,5.35-15.129a8.7,8.7,0,0,1,4.295-1.125,9.747,9.747,0,0,1,3.539.727,5.442,5.442,0,0,0,1.371.422.889.889,0,0,0,.65-.275,1.5,1.5,0,0,0,.357-.873Zm11.3,11.73H21.7l-.668,1.547A3.442,3.442,0,0,0,20.707-1.7a1.061,1.061,0,0,0,.539.984A4.534,4.534,0,0,0,22.8-.434V0H17.52V-.434a2.363,2.363,0,0,0,1.406-.709,9.424,9.424,0,0,0,1.359-2.4l5.684-12.68h.223l5.73,13.031A7.936,7.936,0,0,0,33.27-.855a1.84,1.84,0,0,0,1.125.422V0H26.707V-.434h.316a2.407,2.407,0,0,0,1.3-.258.626.626,0,0,0,.258-.539,1.436,1.436,0,0,0-.07-.434q-.023-.105-.352-.879Zm-.4-.867-2.367-5.473L22.113-5.391Zm21.105-10.5v4.3H47.6a6.789,6.789,0,0,0-.832-2.139,3.2,3.2,0,0,0-1.254-1.037,4.014,4.014,0,0,0-1.559-.211H42.773V-2.719A5.007,5.007,0,0,0,42.908-1.2a1.209,1.209,0,0,0,.527.533,2.133,2.133,0,0,0,1.072.229h.527V0h-8.32V-.434h.527A2.2,2.2,0,0,0,38.355-.68a1.121,1.121,0,0,0,.48-.562,4.828,4.828,0,0,0,.129-1.477V-14.977H37.816a3.34,3.34,0,0,0-2.332.68A4.5,4.5,0,0,0,34.2-11.59H33.75v-4.3Zm7.406.914v6.469h.316a2.51,2.51,0,0,0,2.191-.949,5.839,5.839,0,0,0,.867-2.8h.445v8.32H58.8a6.23,6.23,0,0,0-.592-2.227A2.55,2.55,0,0,0,57.164-7.33a3.987,3.987,0,0,0-1.734-.3v4.477a6.458,6.458,0,0,0,.111,1.605.964.964,0,0,0,.416.48,1.953,1.953,0,0,0,.984.188h.949A5.7,5.7,0,0,0,61.459-1.91a5.744,5.744,0,0,0,1.928-3.141h.434L63.105,0H49.371V-.434H49.9A2.2,2.2,0,0,0,51.012-.68a1.067,1.067,0,0,0,.469-.562,4.828,4.828,0,0,0,.129-1.477V-13.172a8.331,8.331,0,0,0-.059-1.324,1.121,1.121,0,0,0-.434-.633,2.015,2.015,0,0,0-1.219-.328h-.527v-.434h13.3v4.7h-.445a5.729,5.729,0,0,0-.955-2.473,3.548,3.548,0,0,0-1.74-1.1,9.424,9.424,0,0,0-2.461-.211Zm26.027-1.277v5.6h-.434a7.14,7.14,0,0,0-2.355-3.492,5.546,5.546,0,0,0-3.434-1.2,4.43,4.43,0,0,0-2.965,1,5.424,5.424,0,0,0-1.676,2.795,13.837,13.837,0,0,0-.492,3.68,13.449,13.449,0,0,0,.539,4.008,4.553,4.553,0,0,0,1.74,2.531,4.988,4.988,0,0,0,2.854.809,5.888,5.888,0,0,0,1.178-.123A8.389,8.389,0,0,0,77.648-1V-4.3a3.52,3.52,0,0,0-.129-1.213,1.189,1.189,0,0,0-.533-.5,2,2,0,0,0-.979-.223H75.6v-.434H83.32v.434a3.376,3.376,0,0,0-1.225.24,1.2,1.2,0,0,0-.533.6,3.315,3.315,0,0,0-.105,1.09V-1A15.65,15.65,0,0,1,78.287.029a16.583,16.583,0,0,1-3.416.346A9.923,9.923,0,0,1,71.115-.24a9.379,9.379,0,0,1-2.637-1.617,7.639,7.639,0,0,1-1.787-2.256,7.889,7.889,0,0,1-.82-3.621,8.161,8.161,0,0,1,2.52-6.059,8.683,8.683,0,0,1,6.34-2.473,11.054,11.054,0,0,1,2.133.188,10.923,10.923,0,0,1,1.67.533,6.946,6.946,0,0,0,1.365.439.92.92,0,0,0,.609-.24,2.137,2.137,0,0,0,.516-.908Zm11.379.141a7.935,7.935,0,0,1,6.17,2.215A7.966,7.966,0,0,1,101.379-8a8.474,8.474,0,0,1-1.77,5.32A7.867,7.867,0,0,1,92.988.363a8.034,8.034,0,0,1-6.633-2.906A8.416,8.416,0,0,1,84.5-7.992a7.925,7.925,0,0,1,2.408-5.9A7.667,7.667,0,0,1,92.836-16.113Zm.141.75a3.581,3.581,0,0,0-3.316,2.227,11.9,11.9,0,0,0-.926,5.25q0,4.066,1.43,6.012A3.259,3.259,0,0,0,92.953-.516,3.345,3.345,0,0,0,94.969-1.1a4.812,4.812,0,0,0,1.605-2.4,13.315,13.315,0,0,0,.574-4.295,14.272,14.272,0,0,0-.586-4.717,4.591,4.591,0,0,0-1.494-2.209A3.523,3.523,0,0,0,92.977-15.363Zm15.633,8.121v4.453a4.916,4.916,0,0,0,.158,1.623,1.157,1.157,0,0,0,.557.533,3.75,3.75,0,0,0,1.488.2V0H102.68V-.434a3.648,3.648,0,0,0,1.494-.205,1.2,1.2,0,0,0,.551-.533,4.856,4.856,0,0,0,.158-1.617V-13.1a4.916,4.916,0,0,0-.158-1.623,1.157,1.157,0,0,0-.557-.533,3.75,3.75,0,0,0-1.488-.2v-.434h7.383a16.113,16.113,0,0,1,4.219.4,4.25,4.25,0,0,1,2.18,1.471,3.946,3.946,0,0,1,.844,2.514A3.754,3.754,0,0,1,116.039-8.6a5.232,5.232,0,0,1-2.262,1.09l3.82,5.379a8.132,8.132,0,0,0,1.066,1.3,1.985,1.985,0,0,0,1.113.4V0h-5l-5.121-7.242Zm0-7.793v6.961h.668a7.468,7.468,0,0,0,2.438-.3,2.428,2.428,0,0,0,1.271-1.078,3.947,3.947,0,0,0,.463-2.033,3.706,3.706,0,0,0-.85-2.684,3.7,3.7,0,0,0-2.736-.867Zm27.176-.855v.434a2.345,2.345,0,0,0-1.207.457,12.183,12.183,0,0,0-1.852,2.684l-3.445,5.754v3.844a5.219,5.219,0,0,0,.129,1.529,1.19,1.19,0,0,0,.51.527,1.958,1.958,0,0,0,1.014.229h.891V0h-8.918V-.434h.832a2.158,2.158,0,0,0,1.113-.246,1.121,1.121,0,0,0,.48-.562,4.828,4.828,0,0,0,.129-1.477V-5.906l-3.738-6.809a10.028,10.028,0,0,0-1.57-2.373,1.976,1.976,0,0,0-1.219-.369v-.434h7.617v.434h-.34a1.723,1.723,0,0,0-.967.2.544.544,0,0,0-.275.422,7.059,7.059,0,0,0,.938,2.121l2.871,5.262,2.859-4.793a6.351,6.351,0,0,0,1.066-2.332.624.624,0,0,0-.3-.527,2.893,2.893,0,0,0-1.465-.352v-.434Z" transform="translate(-2192 3338)" fill="#222"/>
  </g>
</svg>
