<svg xmlns="http://www.w3.org/2000/svg" xmlns:xlink="http://www.w3.org/1999/xlink" width="80" height="23" viewBox="0 0 80 23">
  <defs>
    <clipPath id="clip-path">
      <rect id="長方形_266" data-name="長方形 266" width="80" height="23" transform="translate(-2268 842)" fill="#fff"/>
    </clipPath>
  </defs>
  <g id="ttl_news" transform="translate(2268 -842)" clip-path="url(#clip-path)">
    <path id="パス_3282" data-name="パス 3282" d="M19.387-19.264a2.726,2.726,0,0,0-1.347.472,1.817,1.817,0,0,0-.588,1.066,10.879,10.879,0,0,0-.157,2.153V.055Q17.09.041,16.611.041t-.752.014L3.705-15.34V-4.594a11.893,11.893,0,0,0,.178,2.427,1.729,1.729,0,0,0,.731,1.128,4.273,4.273,0,0,0,1.812.479V0Q5.346-.082,3.4-.082,1.859-.082.971,0V-.561a2.726,2.726,0,0,0,1.347-.472A1.817,1.817,0,0,0,2.905-2.1a10.879,10.879,0,0,0,.157-2.153V-16.857a5.358,5.358,0,0,0-.157-1.531,1.012,1.012,0,0,0-.581-.656,4.255,4.255,0,0,0-1.354-.219v-.561q.889.082,2.434.082,1.408,0,2.406-.082L16.652-6.467V-15.23a11.893,11.893,0,0,0-.178-2.427,1.729,1.729,0,0,0-.731-1.128,4.273,4.273,0,0,0-1.812-.479v-.561q1.08.082,3.021.082,1.559,0,2.434-.082ZM36.586-6.6q-.082.916-.082,2.352A38.793,38.793,0,0,0,36.7,0q-1.9-.082-6.412-.082-6.1,0-9.119.082V-.561a4.255,4.255,0,0,0,1.354-.219,1.012,1.012,0,0,0,.581-.656,5.358,5.358,0,0,0,.157-1.531V-16.857a5.358,5.358,0,0,0-.157-1.531,1.012,1.012,0,0,0-.581-.656,4.255,4.255,0,0,0-1.354-.219v-.561q3.021.082,9.119.082,4.115,0,5.852-.082-.191,2.311-.191,4.143a16.476,16.476,0,0,0,.082,1.9h-.643a10.663,10.663,0,0,0-.875-3.213,3.784,3.784,0,0,0-1.49-1.682,4.5,4.5,0,0,0-2.229-.506H29.641a3.992,3.992,0,0,0-1.265.144.84.84,0,0,0-.526.547,4.456,4.456,0,0,0-.137,1.306v6.932H28.6a2.591,2.591,0,0,0,2.27-1.094,6.8,6.8,0,0,0,1.066-2.6h.643q-.1,1.381-.1,2.639l.014,1.34q0,1.422.164,3.979H32.02Q31.459-9.693,28.6-9.693h-.889v7.055a4.456,4.456,0,0,0,.137,1.306.84.84,0,0,0,.526.547,3.992,3.992,0,0,0,1.265.144h1.381A4.082,4.082,0,0,0,34.214-2.01,9.044,9.044,0,0,0,35.943-6.6Zm22.8-13.221q1.887.082,3.473.082,1.326,0,2.16-.082v.561q-1.641.629-2.461,3.336L57.627.055q-.3-.027-.984-.027t-.971.027L51.543-12.428,47.414.055Q47.1.027,46.43.027t-.984.027L39.17-17.473a3.067,3.067,0,0,0-.8-1.34,1.624,1.624,0,0,0-.964-.451v-.561q1.682.082,4.184.082,2.352,0,3.432-.082v.561a.991.991,0,0,0-.971,1.094,4.1,4.1,0,0,0,.246,1.258L48.385-5.1l2.844-8.312-1.436-4.334a2.572,2.572,0,0,0-.656-1.148,1.521,1.521,0,0,0-.889-.369v-.561q1.559.082,4.006.082,2.721,0,4.033-.082v.561a3.99,3.99,0,0,0-1.463.232.8.8,0,0,0-.437.807,4.766,4.766,0,0,0,.273,1.313L58.488-5.2l2.666-8.463a11.858,11.858,0,0,0,.629-3.268,2.272,2.272,0,0,0-.595-1.757,2.747,2.747,0,0,0-1.8-.581ZM67.129-7.369A10.7,10.7,0,0,0,68.517-2.29,4.067,4.067,0,0,0,72.229-.342,4.323,4.323,0,0,0,74-.69a2.794,2.794,0,0,0,1.244-1.06A3.114,3.114,0,0,0,75.7-3.473a3.785,3.785,0,0,0-.513-1.962,6.068,6.068,0,0,0-1.381-1.586A25.921,25.921,0,0,0,71.49-8.682a31.062,31.062,0,0,1-2.687-1.9A7.037,7.037,0,0,1,67.163-12.5a4.987,4.987,0,0,1-.649-2.57,4.635,4.635,0,0,1,.861-2.851,5.122,5.122,0,0,1,2.283-1.716,8.466,8.466,0,0,1,3.131-.561,8.983,8.983,0,0,1,1.757.15,5.878,5.878,0,0,1,1.244.376,12.117,12.117,0,0,1,1.087.567,2.342,2.342,0,0,0,.943.4.43.43,0,0,0,.4-.294,3.406,3.406,0,0,0,.219-.937h.643q-.137,1.873-.137,6.385H78.3a8.724,8.724,0,0,0-.677-2.885A5.674,5.674,0,0,0,76-18.655a3.761,3.761,0,0,0-2.454-.854,3.6,3.6,0,0,0-1.593.342,2.536,2.536,0,0,0-1.094.991,2.879,2.879,0,0,0-.39,1.511,3.2,3.2,0,0,0,.834,2.283,12.951,12.951,0,0,0,2.174,1.8l1.8,1.224a29.775,29.775,0,0,1,2.6,1.9,6.737,6.737,0,0,1,1.559,1.887,5.057,5.057,0,0,1,.6,2.5,4.867,4.867,0,0,1-.93,3.021A5.574,5.574,0,0,1,76.6-.212,9.668,9.668,0,0,1,73.09.4a10.145,10.145,0,0,1-2.6-.28,8.721,8.721,0,0,1-1.907-.759,1.939,1.939,0,0,0-.943-.4.43.43,0,0,0-.4.294,3.406,3.406,0,0,0-.219.937h-.643q.109-1.75.109-7.561Z" transform="translate(-2268 863)" fill="#222"/>
  </g>
</svg>
