<svg xmlns="http://www.w3.org/2000/svg" width="112.854" height="9.693" viewBox="0 0 112.854 9.693">
  <path id="ttl_mailmagazine" d="M-50.976,0l-3.582-7.8v6.193A1.9,1.9,0,0,0-54.373-.54a1.013,1.013,0,0,0,.8.287h.328V0h-3.227V-.253h.328a.942.942,0,0,0,.834-.355,2.074,2.074,0,0,0,.15-1V-7.663a2.118,2.118,0,0,0-.137-.889.759.759,0,0,0-.352-.332,1.888,1.888,0,0,0-.824-.133V-9.27h2.625l3.363,7.253,3.309-7.253h2.625v.253h-.321a.95.95,0,0,0-.841.355,2.074,2.074,0,0,0-.15,1v6.057A1.839,1.839,0,0,0-45.671-.54a1.013,1.013,0,0,0,.8.287h.321V0h-3.937V-.253h.328a.931.931,0,0,0,.834-.355,2.074,2.074,0,0,0,.15-1V-7.8L-50.75,0Zm13.125-3.1h-3.589l-.629,1.463a2.316,2.316,0,0,0-.232.807.469.469,0,0,0,.2.373,1.762,1.762,0,0,0,.872.208V0h-2.919V-.253a1.573,1.573,0,0,0,.752-.267,4.187,4.187,0,0,0,.772-1.333l3.261-7.629h.239L-35.9-1.771a3.515,3.515,0,0,0,.708,1.207,1.442,1.442,0,0,0,.885.311V0H-37.96V-.253a1.371,1.371,0,0,0,.749-.185.476.476,0,0,0,.195-.383,2.834,2.834,0,0,0-.273-.95Zm-.191-.506-1.572-3.746-1.613,3.746Zm8.217,3.356V0H-33.8V-.253h.328a.99.99,0,0,0,.834-.335,2.082,2.082,0,0,0,.164-1.053V-7.629a3.069,3.069,0,0,0-.089-.93.616.616,0,0,0-.28-.294,1.3,1.3,0,0,0-.629-.164H-33.8V-9.27h3.972v.253h-.335a.981.981,0,0,0-.827.335,2.009,2.009,0,0,0-.171,1.053v5.988a3.069,3.069,0,0,0,.089.93.612.612,0,0,0,.287.294,1.257,1.257,0,0,0,.622.164Zm8.367-2.311.226.048L-22.025,0H-29.2V-.253h.349a.932.932,0,0,0,.841-.383,2.207,2.207,0,0,0,.144-1.012V-7.629a1.913,1.913,0,0,0-.191-1.087,1,1,0,0,0-.793-.3H-29.2V-9.27h4.2v.253a2.561,2.561,0,0,0-1.036.137.836.836,0,0,0-.407.362,2.983,2.983,0,0,0-.109,1.046v5.824a1.9,1.9,0,0,0,.109.779.489.489,0,0,0,.253.212,4.438,4.438,0,0,0,1.066.068h.677a4.9,4.9,0,0,0,1.5-.157,1.949,1.949,0,0,0,.786-.557A4.566,4.566,0,0,0-21.458-2.563ZM-12.223,0-15.8-7.8v6.193A1.9,1.9,0,0,0-15.62-.54a1.013,1.013,0,0,0,.8.287h.328V0h-3.227V-.253h.328a.942.942,0,0,0,.834-.355,2.074,2.074,0,0,0,.15-1V-7.663a2.118,2.118,0,0,0-.137-.889.759.759,0,0,0-.352-.332,1.888,1.888,0,0,0-.824-.133V-9.27h2.625l3.363,7.253L-8.422-9.27H-5.8v.253h-.321a.95.95,0,0,0-.841.355,2.074,2.074,0,0,0-.15,1v6.057A1.839,1.839,0,0,0-6.918-.54a1.013,1.013,0,0,0,.8.287H-5.8V0H-9.734V-.253h.328a.931.931,0,0,0,.834-.355,2.074,2.074,0,0,0,.15-1V-7.8L-12,0ZM.9-3.1H-2.687l-.629,1.463a2.316,2.316,0,0,0-.232.807.469.469,0,0,0,.2.373,1.762,1.762,0,0,0,.872.208V0H-5.394V-.253A1.573,1.573,0,0,0-4.642-.52a4.187,4.187,0,0,0,.772-1.333L-.608-9.481h.239L2.857-1.771A3.515,3.515,0,0,0,3.565-.564a1.442,1.442,0,0,0,.885.311V0H.793V-.253a1.371,1.371,0,0,0,.749-.185A.476.476,0,0,0,1.736-.82a2.834,2.834,0,0,0-.273-.95ZM.711-3.609-.861-7.355-2.475-3.609ZM13.2-9.481l.239,2.926H13.2A4,4,0,0,0,12.264-8.2,2.932,2.932,0,0,0,10.138-9,3.024,3.024,0,0,0,7.444-7.6a5.035,5.035,0,0,0-.772,2.816,5.631,5.631,0,0,0,.513,2.42,3.6,3.6,0,0,0,1.343,1.6,3.224,3.224,0,0,0,1.706.509,3.767,3.767,0,0,0,.991-.13,3.953,3.953,0,0,0,.923-.383v-2.68a2.478,2.478,0,0,0-.106-.913.715.715,0,0,0-.328-.328,1.9,1.9,0,0,0-.783-.113v-.26H14.52v.26h-.171a.763.763,0,0,0-.731.355,2.4,2.4,0,0,0-.137,1V-.608a6.945,6.945,0,0,1-1.552.622,6.791,6.791,0,0,1-1.7.2A4.942,4.942,0,0,1,6.146-1.511,4.6,4.6,0,0,1,5.1-4.491a4.983,4.983,0,0,1,.588-2.345A5.019,5.019,0,0,1,7.6-8.887a4.688,4.688,0,0,1,2.406-.595,4.74,4.74,0,0,1,.919.082,8.4,8.4,0,0,1,1.172.362,1.891,1.891,0,0,0,.513.144.273.273,0,0,0,.222-.12.914.914,0,0,0,.113-.468ZM21.123-3.1H17.534l-.629,1.463a2.316,2.316,0,0,0-.232.807.469.469,0,0,0,.2.373,1.762,1.762,0,0,0,.872.208V0H14.827V-.253a1.573,1.573,0,0,0,.752-.267,4.188,4.188,0,0,0,.772-1.333l3.261-7.629h.239l3.227,7.711a3.515,3.515,0,0,0,.708,1.207,1.442,1.442,0,0,0,.885.311V0H21.014V-.253a1.371,1.371,0,0,0,.749-.185.476.476,0,0,0,.195-.383,2.834,2.834,0,0,0-.273-.95Zm-.191-.506L19.359-7.355,17.746-3.609ZM32.881-9.27,26.79-.561h3.8a2.074,2.074,0,0,0,1.343-.383A3.286,3.286,0,0,0,32.765-2.5l.226.041L32.553,0H25.006V-.253l5.947-8.463H27.986a2.616,2.616,0,0,0-1.07.161,1.139,1.139,0,0,0-.506.465,3.9,3.9,0,0,0-.318,1.138h-.26l.191-2.317ZM37.7-.253V0H33.729V-.253h.328a.99.99,0,0,0,.834-.335,2.082,2.082,0,0,0,.164-1.053V-7.629a3.069,3.069,0,0,0-.089-.93.616.616,0,0,0-.28-.294,1.3,1.3,0,0,0-.629-.164h-.328V-9.27H37.7v.253h-.335a.981.981,0,0,0-.827.335,2.009,2.009,0,0,0-.171,1.053v5.988a3.069,3.069,0,0,0,.089.93.612.612,0,0,0,.287.294,1.257,1.257,0,0,0,.622.164Zm.157-9.017h2.516L46.04-2.317V-7.663a1.839,1.839,0,0,0-.191-1.066,1.013,1.013,0,0,0-.8-.287h-.321V-9.27h3.227v.253h-.328a.942.942,0,0,0-.834.355,2.074,2.074,0,0,0-.15,1V.15H46.4L40.284-7.314v5.708A1.9,1.9,0,0,0,40.469-.54a1.026,1.026,0,0,0,.8.287H41.6V0H38.37V-.253h.321a.95.95,0,0,0,.841-.355,2.074,2.074,0,0,0,.15-1V-8.053a4.225,4.225,0,0,0-.612-.622,2.247,2.247,0,0,0-.612-.28,2.179,2.179,0,0,0-.6-.062Zm13.221.506V-5.1h2.037a1.661,1.661,0,0,0,1.06-.239,1.54,1.54,0,0,0,.4-1.107h.253V-3.22h-.253a3.528,3.528,0,0,0-.191-.868.856.856,0,0,0-.4-.376,2.059,2.059,0,0,0-.861-.137H51.078v3.056a2.838,2.838,0,0,0,.055.749.43.43,0,0,0,.191.212,1.162,1.162,0,0,0,.52.079h1.572a4.26,4.26,0,0,0,1.142-.109,1.7,1.7,0,0,0,.684-.431,5.26,5.26,0,0,0,.868-1.278h.273L55.583,0H48.439V-.253h.328A1.3,1.3,0,0,0,49.39-.41a.575.575,0,0,0,.3-.328,3.217,3.217,0,0,0,.079-.9V-7.656a1.993,1.993,0,0,0-.178-1.087,1.059,1.059,0,0,0-.82-.273h-.328V-9.27h7.144l.1,2.03h-.267a3.2,3.2,0,0,0-.318-1,1.092,1.092,0,0,0-.516-.417,3.1,3.1,0,0,0-.964-.1Z" transform="translate(56.472 9.481)" fill="#fff"/>
</svg>
